<svg width="45" height="45" viewBox="0 0 45 45" fill="none" xmlns="http://www.w3.org/2000/svg">
<rect width="45" height="45" rx="13" fill="#10340C"/>
<g clip-path="url(#clip0_9_317)">
<path d="M31.6786 20.9643H25.25V14.5357C25.25 13.7469 24.6103 13.1071 23.8215 13.1071H22.3929C21.6041 13.1071 20.9643 13.7469 20.9643 14.5357V20.9643H14.5357C13.7469 20.9643 13.1072 21.604 13.1072 22.3929V23.8214C13.1072 24.6103 13.7469 25.25 14.5357 25.25H20.9643V31.6786C20.9643 32.4674 21.6041 33.1071 22.3929 33.1071H23.8215C24.6103 33.1071 25.25 32.4674 25.25 31.6786V25.25H31.6786C32.4674 25.25 33.1072 24.6103 33.1072 23.8214V22.3929C33.1072 21.604 32.4674 20.9643 31.6786 20.9643Z" fill="white"/>
</g>
<defs>
<clipPath id="clip0_9_317">
<rect width="20" height="20" fill="white" transform="translate(13 13)"/>
</clipPath>
</defs>
</svg>
