<svg width="112" height="134" viewBox="0 0 112 134" fill="none" xmlns="http://www.w3.org/2000/svg">
<path d="M13.4641 12L78.6602 70Z" fill="white"/>
<path d="M13.4641 12L78.6602 70" stroke="white" stroke-width="7" stroke-linecap="square"/>
<path d="M10.0327 10V124Z" fill="white"/>
<path d="M10.0327 10V124" stroke="white" stroke-width="7" stroke-linecap="square"/>
<path d="M83.2352 10L82.8921 71Z" fill="white"/>
<path d="M83.2352 10L82.8921 71" stroke="white" stroke-width="7.5" stroke-linecap="square"/>
<path d="M32.7656 124V31.3357Z" fill="white"/>
<path d="M32.7656 124V31.3357" stroke="white" stroke-width="7" stroke-linecap="square"/>
<path d="M48.2778 127.5V121.278H103.451V127.5H48.2778ZM51.0865 116.667V92.389H58.5124V116.667H51.0865ZM65.1296 116.667V74.3333H72.5556V116.667H65.1296ZM79.1729 116.667V85.167H86.5991V116.667H79.1729ZM93.2162 116.667V63.5H100.643V116.667H93.2162Z" fill="white" stroke="white"/>
</svg>
