<svg width="166" height="30" viewBox="0 0 166 30" fill="none" xmlns="http://www.w3.org/2000/svg">
<path d="M21.976 29H16.936L5.524 11.756V29H0.484V3.836H5.524L16.936 21.116V3.836H21.976V29ZM35.8127 29.324C33.8927 29.324 32.1647 28.904 30.6287 28.064C29.0927 27.2 27.8807 25.988 26.9927 24.428C26.1287 22.868 25.6967 21.068 25.6967 19.028C25.6967 16.988 26.1407 15.188 27.0287 13.628C27.9407 12.068 29.1767 10.868 30.7367 10.028C32.2967 9.164 34.0367 8.732 35.9567 8.732C37.8767 8.732 39.6167 9.164 41.1767 10.028C42.7367 10.868 43.9607 12.068 44.8487 13.628C45.7607 15.188 46.2167 16.988 46.2167 19.028C46.2167 21.068 45.7487 22.868 44.8127 24.428C43.9007 25.988 42.6527 27.2 41.0687 28.064C39.5087 28.904 37.7567 29.324 35.8127 29.324ZM35.8127 24.932C36.7247 24.932 37.5767 24.716 38.3687 24.284C39.1847 23.828 39.8327 23.156 40.3127 22.268C40.7927 21.38 41.0327 20.3 41.0327 19.028C41.0327 17.132 40.5287 15.68 39.5207 14.672C38.5367 13.64 37.3247 13.124 35.8847 13.124C34.4447 13.124 33.2327 13.64 32.2487 14.672C31.2887 15.68 30.8087 17.132 30.8087 19.028C30.8087 20.924 31.2767 22.388 32.2127 23.42C33.1727 24.428 34.3727 24.932 35.8127 24.932ZM55.7817 13.196V22.844C55.7817 23.516 55.9377 24.008 56.2497 24.32C56.5857 24.608 57.1377 24.752 57.9057 24.752H60.2457V29H57.0777C52.8297 29 50.7057 26.936 50.7057 22.808V13.196H48.3297V9.056H50.7057V4.124H55.7817V9.056H60.2457V13.196H55.7817ZM82.4107 18.596C82.4107 19.316 82.3627 19.964 82.2667 20.54H67.6867C67.8067 21.98 68.3107 23.108 69.1987 23.924C70.0867 24.74 71.1787 25.148 72.4747 25.148C74.3467 25.148 75.6787 24.344 76.4707 22.736H81.9067C81.3307 24.656 80.2267 26.24 78.5947 27.488C76.9627 28.712 74.9587 29.324 72.5827 29.324C70.6627 29.324 68.9347 28.904 67.3987 28.064C65.8867 27.2 64.6987 25.988 63.8347 24.428C62.9947 22.868 62.5747 21.068 62.5747 19.028C62.5747 16.964 62.9947 15.152 63.8347 13.592C64.6747 12.032 65.8507 10.832 67.3627 9.992C68.8747 9.152 70.6147 8.732 72.5827 8.732C74.4787 8.732 76.1707 9.14 77.6587 9.956C79.1707 10.772 80.3347 11.936 81.1507 13.448C81.9907 14.936 82.4107 16.652 82.4107 18.596ZM77.1907 17.156C77.1667 15.86 76.6987 14.828 75.7867 14.06C74.8747 13.268 73.7587 12.872 72.4387 12.872C71.1907 12.872 70.1347 13.256 69.2707 14.024C68.4307 14.768 67.9147 15.812 67.7227 17.156H77.1907ZM84.8655 16.4C84.8655 13.928 85.4175 11.72 86.5215 9.776C87.6495 7.808 89.1735 6.284 91.0935 5.204C93.0375 4.1 95.2095 3.548 97.6095 3.548C100.417 3.548 102.877 4.268 104.989 5.708C107.101 7.148 108.577 9.14 109.417 11.684H103.621C103.045 10.484 102.229 9.584 101.173 8.984C100.141 8.384 98.9415 8.084 97.5735 8.084C96.1095 8.084 94.8015 8.432 93.6495 9.128C92.5215 9.8 91.6335 10.76 90.9855 12.008C90.3615 13.256 90.0495 14.72 90.0495 16.4C90.0495 18.056 90.3615 19.52 90.9855 20.792C91.6335 22.04 92.5215 23.012 93.6495 23.708C94.8015 24.38 96.1095 24.716 97.5735 24.716C98.9415 24.716 100.141 24.416 101.173 23.816C102.229 23.192 103.045 22.28 103.621 21.08H109.417C108.577 23.648 107.101 25.652 104.989 27.092C102.901 28.508 100.441 29.216 97.6095 29.216C95.2095 29.216 93.0375 28.676 91.0935 27.596C89.1735 26.492 87.6495 24.968 86.5215 23.024C85.4175 21.08 84.8655 18.872 84.8655 16.4ZM122.578 29.324C120.658 29.324 118.93 28.904 117.394 28.064C115.858 27.2 114.646 25.988 113.758 24.428C112.894 22.868 112.462 21.068 112.462 19.028C112.462 16.988 112.906 15.188 113.794 13.628C114.706 12.068 115.942 10.868 117.502 10.028C119.062 9.164 120.802 8.732 122.722 8.732C124.642 8.732 126.382 9.164 127.942 10.028C129.502 10.868 130.726 12.068 131.614 13.628C132.526 15.188 132.982 16.988 132.982 19.028C132.982 21.068 132.514 22.868 131.578 24.428C130.666 25.988 129.418 27.2 127.834 28.064C126.274 28.904 124.522 29.324 122.578 29.324ZM122.578 24.932C123.49 24.932 124.342 24.716 125.134 24.284C125.95 23.828 126.598 23.156 127.078 22.268C127.558 21.38 127.798 20.3 127.798 19.028C127.798 17.132 127.294 15.68 126.286 14.672C125.302 13.64 124.09 13.124 122.65 13.124C121.21 13.124 119.998 13.64 119.014 14.672C118.054 15.68 117.574 17.132 117.574 19.028C117.574 20.924 118.042 22.388 118.978 23.42C119.938 24.428 121.138 24.932 122.578 24.932ZM139.235 6.68C138.347 6.68 137.603 6.404 137.003 5.852C136.427 5.276 136.139 4.568 136.139 3.728C136.139 2.888 136.427 2.192 137.003 1.64C137.603 1.064 138.347 0.775999 139.235 0.775999C140.123 0.775999 140.855 1.064 141.431 1.64C142.031 2.192 142.331 2.888 142.331 3.728C142.331 4.568 142.031 5.276 141.431 5.852C140.855 6.404 140.123 6.68 139.235 6.68ZM141.719 9.056V29H136.679V9.056H141.719ZM157.751 8.768C160.127 8.768 162.047 9.524 163.511 11.036C164.975 12.524 165.707 14.612 165.707 17.3V29H160.667V17.984C160.667 16.4 160.271 15.188 159.479 14.348C158.687 13.484 157.607 13.052 156.239 13.052C154.847 13.052 153.743 13.484 152.927 14.348C152.135 15.188 151.739 16.4 151.739 17.984V29H146.699V9.056H151.739V11.54C152.411 10.676 153.263 10.004 154.295 9.524C155.351 9.02 156.503 8.768 157.751 8.768Z" fill="#10340C"/>
</svg>
