<svg width="11" height="10" viewBox="0 0 11 10" fill="none" xmlns="http://www.w3.org/2000/svg">
<path d="M6.56599 9.1501L6.07051 9.64558C5.86071 9.85537 5.52147 9.85537 5.3139 9.64558L0.975098 5.30901C0.7653 5.09921 0.7653 4.75996 0.975098 4.55239L5.3139 0.213592C5.5237 0.00379439 5.86295 0.00379439 6.07051 0.213592L6.56599 0.709073C6.77802 0.921103 6.77356 1.26705 6.55706 1.47461L3.86763 4.03683H10.2821C10.5789 4.03683 10.8177 4.27564 10.8177 4.57248V5.28669C10.8177 5.58353 10.5789 5.82234 10.2821 5.82234H3.86763L6.55706 8.38456C6.77579 8.59212 6.78025 8.93807 6.56599 9.1501Z" fill="#10340C"/>
</svg>
